<svg width="102" height="22" viewBox="0 0 102 22" fill="none" xmlns="http://www.w3.org/2000/svg">
<path d="M0.5 17.1732C0.5 17.7922 0.603812 18.3704 0.811435 18.9078C1.01906 19.4429 1.30887 19.9072 1.68086 20.2984C2.05285 20.6896 2.50054 20.9926 3.02392 21.2075C3.54514 21.4225 4.11827 21.5299 4.74114 21.5299C5.18233 21.5299 5.6603 21.4676 6.17503 21.343C6.68976 21.2183 7.16989 21.0313 7.61542 20.782C8.05878 20.5327 8.42861 20.2124 8.72274 19.8212C9.01687 19.43 9.16394 18.9701 9.16394 18.437C9.16394 18.0932 9.11203 17.8116 9.00822 17.5924C8.90441 17.3731 8.75518 17.2012 8.56054 17.0765C8.36589 16.9519 8.13448 16.8659 7.86846 16.8186C7.60028 16.7713 7.31047 16.7477 6.99904 16.7477C6.82602 16.7477 6.60542 16.7606 6.33724 16.7864C6.06906 16.8121 5.81169 16.8637 5.56514 16.9411C5.31859 17.0185 5.10664 17.1324 4.92929 17.2829C4.75195 17.4333 4.66328 17.6289 4.66328 17.8696C4.66328 18.1189 4.72816 18.278 4.85792 18.3468C4.98769 18.4156 5.16503 18.4499 5.38996 18.4499C5.57163 18.4499 5.72951 18.4199 5.8636 18.3597C5.99769 18.2995 6.13178 18.2307 6.26587 18.1533C6.39996 18.076 6.53621 18.0072 6.67463 17.947C6.81304 17.8868 6.97741 17.8567 7.16773 17.8567C7.28884 17.8567 7.40563 17.8589 7.51809 17.8632C7.63056 17.8675 7.72572 17.889 7.80358 17.9277C7.88143 17.9663 7.94199 18.0265 7.98525 18.1082C8.0285 18.1899 8.04797 18.3038 8.04797 18.4499C8.04797 18.811 7.92902 19.1141 7.68679 19.357C7.44456 19.602 7.14827 19.8019 6.7979 19.9566C6.44754 20.1114 6.08203 20.2231 5.70139 20.2919C5.32075 20.3607 5.00066 20.3951 4.74114 20.3951C4.29129 20.3951 3.87388 20.3306 3.48891 20.2017C3.10394 20.0727 2.7752 19.8814 2.49837 19.6278C2.22154 19.3742 2.00527 19.0604 1.84955 18.6821C1.69383 18.3038 1.61597 17.8739 1.61597 17.3925C1.61597 17.0228 1.66139 16.6423 1.75223 16.2512C1.84306 15.86 1.97715 15.4774 2.1545 15.1034C2.33184 14.7294 2.54595 14.3748 2.79683 14.0416C3.04555 13.7063 3.3267 13.4097 3.63814 13.1518C3.94957 12.8939 4.29129 12.6919 4.66328 12.5457C5.03527 12.3995 5.42456 12.3265 5.83116 12.3265C5.84846 12.3265 5.87009 12.3286 5.89604 12.3329C5.92199 12.3372 5.94794 12.3394 5.9739 12.3394C6.0085 12.348 6.04311 12.3523 6.07771 12.3523C6.12096 12.3695 6.22478 12.4189 6.38914 12.5006L6.92118 12.7649L7.45321 13.0293C7.61758 13.111 7.72139 13.1647 7.76465 13.1905C7.78195 13.1991 7.79925 13.2034 7.81655 13.2034C7.83385 13.212 7.85981 13.2163 7.89441 13.2163C7.92036 13.2163 7.94632 13.212 7.97227 13.2034C7.99822 13.2034 8.01985 13.1991 8.03715 13.1905C8.06094 13.1733 8.10852 13.1282 8.17773 13.0551C8.24694 12.982 8.29019 12.9326 8.30749 12.9068C8.30749 12.8896 8.31182 12.8724 8.32047 12.8552C8.32047 12.838 8.32263 12.823 8.32696 12.8101C8.33128 12.7972 8.33345 12.7821 8.33345 12.7649C8.33345 12.5328 8.22747 12.3329 8.01769 12.1653C7.80574 11.9976 7.55054 11.8622 7.25208 11.759C6.95362 11.6559 6.64651 11.5828 6.33075 11.5398C6.01499 11.4968 5.75762 11.4753 5.55865 11.4753C5.10015 11.4753 4.65679 11.5549 4.22857 11.7139C3.80034 11.873 3.39807 12.0922 3.02392 12.3716C2.6476 12.651 2.30589 12.9799 1.99878 13.3582C1.69167 13.7364 1.42782 14.1362 1.20722 14.5553C0.986617 14.9766 0.813597 15.4108 0.688158 15.8578C0.562719 16.3049 0.5 16.7434 0.5 17.1732ZM10.985 12.6489C10.985 13.0014 11.0044 13.442 11.0434 13.9707C11.0823 14.4973 11.1472 15.0647 11.238 15.6708C11.3288 16.277 11.4456 16.8938 11.5884 17.5214C11.7311 18.149 11.9063 18.7423 12.1139 19.2989C12.3215 19.8578 12.5659 20.3543 12.8471 20.7884C13.1282 21.2226 13.4462 21.5428 13.8009 21.7492C13.896 21.7234 13.9652 21.6761 14.0085 21.6073C14.0517 21.5385 14.0777 21.4612 14.0863 21.3752C14.095 21.2892 14.0993 21.2054 14.0993 21.1237V20.9109C14.0993 20.6358 14.0799 20.38 14.0409 20.1436C14.002 19.9072 13.9458 19.6729 13.8722 19.4408C13.7987 19.2108 13.7079 18.9701 13.5997 18.7208C13.4916 18.4714 13.3683 18.1877 13.2299 17.8696H13.6451C14.1642 17.8696 14.6638 17.9728 15.1418 18.1791C15.6219 18.3855 16.0955 18.6133 16.5627 18.8626C17.0298 19.1119 17.4948 19.3355 17.9576 19.5375C18.4205 19.7395 18.8855 19.8406 19.3526 19.8406H19.5083C19.5689 19.8406 19.6294 19.8298 19.69 19.8083C19.7506 19.7868 19.8025 19.7567 19.8457 19.7181C19.889 19.6794 19.9106 19.6213 19.9106 19.544C19.9106 19.5096 19.8976 19.4666 19.8717 19.415C19.8457 19.3634 19.8198 19.3054 19.7938 19.243C19.7679 19.1786 19.7397 19.1227 19.7095 19.0754C19.6792 19.0281 19.6511 18.9959 19.6251 18.9787C18.6908 18.48 17.7414 18.0158 16.7768 17.5859C15.8122 17.156 14.8217 16.7907 13.8009 16.4897C13.8009 16.4811 13.7944 16.4618 13.7814 16.4317C13.7684 16.4016 13.7619 16.378 13.7619 16.3608C13.7619 16.1287 13.8398 15.9137 13.9955 15.716C14.1512 15.5182 14.3437 15.3248 14.573 15.1357C14.8022 14.9465 15.0509 14.7531 15.3234 14.5553C15.5959 14.3576 15.8468 14.147 16.0761 13.9191C16.3053 13.6913 16.4978 13.4463 16.6535 13.1841C16.8092 12.9218 16.8871 12.6274 16.8871 12.3007C16.8871 12.0256 16.8287 11.787 16.7119 11.5849C16.5951 11.3829 16.4394 11.211 16.2448 11.0691C16.0501 10.9273 15.8273 10.8112 15.5765 10.7209C15.3256 10.6306 15.0725 10.5619 14.8195 10.5146C14.5643 10.4673 14.3091 10.4351 14.0539 10.4179C13.7987 10.4007 13.5759 10.3921 13.3856 10.3921C13.2385 10.3921 13.0504 10.3878 12.8211 10.3792C12.5919 10.3706 12.3583 10.3813 12.1204 10.4114C11.8825 10.4415 11.6619 10.4974 11.4586 10.5791C11.2553 10.6607 11.1061 10.7918 11.0109 10.9724C11.0109 11.0326 11.0088 11.1422 11.0044 11.3012C11.0001 11.4603 10.9979 11.6279 10.9979 11.8042C10.9979 11.9804 10.9958 12.1481 10.9915 12.3071C10.9871 12.4662 10.985 12.5801 10.985 12.6489ZM12.1009 13.4613C12.1009 13.4011 12.1031 13.3066 12.1074 13.1776C12.1118 13.0486 12.1139 12.9089 12.1139 12.7585V12.3394V12.0686C12.1745 11.9138 12.2826 11.7977 12.4383 11.7204C12.594 11.643 12.7692 11.5892 12.9639 11.5592C13.1585 11.5291 13.3553 11.5162 13.5543 11.5205C13.7533 11.5248 13.9263 11.5269 14.0734 11.5269C14.1945 11.5269 14.3524 11.5441 14.547 11.5785C14.7417 11.6129 14.9298 11.6688 15.1093 11.7461C15.291 11.8235 15.4467 11.9245 15.5765 12.0492C15.7062 12.1739 15.7711 12.3222 15.7711 12.4941C15.7711 12.6747 15.7127 12.8746 15.5959 13.0938C15.4791 13.313 15.3256 13.5301 15.1353 13.745C14.9471 13.96 14.733 14.1685 14.4951 14.3683C14.2572 14.5704 14.0171 14.7488 13.7749 14.9035C13.5327 15.0583 13.3013 15.1829 13.0807 15.2775C12.8601 15.3721 12.6719 15.4194 12.5162 15.4194C12.4816 15.4194 12.46 15.4151 12.4513 15.4065C12.434 15.4065 12.4167 15.4022 12.3994 15.3936C12.2869 15.2732 12.2069 15.1292 12.1593 14.9616C12.1118 14.7939 12.0836 14.6177 12.075 14.4328C12.0663 14.2501 12.0685 14.0696 12.0815 13.8933C12.0945 13.7171 12.1009 13.5731 12.1009 13.4613ZM22.3394 11.5269C22.348 11.6731 22.3588 11.9331 22.3718 12.3071C22.3848 12.6811 22.4086 13.1217 22.4432 13.629C22.4778 14.1362 22.5232 14.6864 22.5794 15.284C22.6357 15.8815 22.7092 16.4811 22.8 17.083C22.8909 17.6848 22.9968 18.2694 23.1179 18.8368C23.2391 19.4021 23.3905 19.9029 23.5721 20.3371C23.7538 20.7712 23.9593 21.1194 24.1885 21.3816C24.4178 21.6439 24.6794 21.775 24.9736 21.775C25.1812 21.775 25.4386 21.7105 25.7457 21.5815C26.0528 21.4526 26.375 21.2914 26.7124 21.0979C27.0498 20.9045 27.385 20.6917 27.7224 20.4596C28.0598 20.2274 28.3648 20.0082 28.6373 19.8019C28.9098 19.5955 29.1304 19.415 29.2991 19.2602C29.4678 19.1076 29.5521 19.0131 29.5521 18.9787V18.3468C29.1801 18.3468 28.8211 18.4177 28.4751 18.5596C28.129 18.7014 27.796 18.8734 27.4759 19.0754C27.1558 19.2753 26.8487 19.4924 26.5502 19.7245C26.2518 19.9566 25.9555 20.1716 25.6613 20.3693C25.644 20.3693 25.6008 20.3736 25.5316 20.3822C25.4624 20.3908 25.4191 20.3951 25.4018 20.3951C25.2461 20.3951 25.1142 20.3285 25.006 20.1952C24.8979 20.0619 24.8006 19.8943 24.714 19.6923C24.6275 19.4902 24.5583 19.2688 24.5064 19.0303C24.4545 18.7895 24.4134 18.5553 24.3831 18.3274C24.3529 18.0996 24.3291 17.8911 24.3118 17.702C24.2945 17.5128 24.2858 17.3796 24.2858 17.3022C24.2858 17.0701 24.3269 16.8809 24.4091 16.7348C24.4913 16.5886 24.6016 16.4768 24.74 16.3995C24.8784 16.3221 25.0406 16.2705 25.2266 16.2447C25.4126 16.2189 25.6051 16.206 25.8041 16.206C25.8473 16.206 25.9057 16.2082 25.9793 16.2125C26.0528 16.2168 26.1285 16.2189 26.2063 16.2189C26.2842 16.2189 26.3512 16.2211 26.4075 16.2254C26.4637 16.2297 26.4961 16.2318 26.5048 16.2318C26.5308 16.2318 26.5827 16.2447 26.6605 16.2705C26.7384 16.2963 26.8227 16.3264 26.9136 16.3608C27.0044 16.3952 27.0887 16.4253 27.1709 16.4511C27.2531 16.4768 27.3072 16.4897 27.3331 16.4897C27.584 16.4897 27.744 16.4468 27.8133 16.3608C27.8825 16.2748 27.9171 16.1458 27.9171 15.9739C27.9171 15.7332 27.8435 15.5526 27.6965 15.4323C27.5494 15.3119 27.3699 15.2259 27.1579 15.1743C26.9482 15.1228 26.7297 15.097 26.5048 15.097H25.9468C25.6094 15.097 25.2764 15.1013 24.9476 15.1099C24.6189 15.1185 24.3031 15.213 24.0003 15.3936C23.8446 15.1615 23.7473 14.8756 23.7084 14.536C23.6694 14.1985 23.6608 13.8568 23.6824 13.5129C23.704 13.169 23.7343 12.8423 23.7733 12.5328C23.8122 12.2233 23.8316 11.9912 23.8316 11.8364C24.2036 11.8364 24.5735 11.8493 24.9411 11.8751C25.3088 11.9009 25.6743 11.9267 26.0376 11.9525C26.401 11.9783 26.7665 12.0041 27.132 12.0299C27.4997 12.0557 27.8652 12.0686 28.2285 12.0686H28.4686C28.5334 12.0686 28.5962 12.0492 28.6567 12.0105C28.7173 11.9718 28.7735 11.9159 28.8254 11.8429C28.8773 11.7698 28.9379 11.6645 29.0071 11.5269C28.9638 11.4323 28.8946 11.3528 28.7995 11.2883C28.7043 11.2239 28.6005 11.168 28.488 11.1207C28.3756 11.0734 28.2653 11.039 28.1571 11.0175C28.049 10.996 27.9603 10.981 27.8911 10.9724C27.8565 10.9724 27.7376 10.9616 27.5343 10.9401C27.331 10.9187 27.0801 10.8886 26.7838 10.8499C26.4853 10.8112 26.1523 10.7725 25.7846 10.7338C25.4169 10.6951 25.0536 10.6564 24.6946 10.6177C24.3356 10.5791 23.996 10.5425 23.6759 10.5081C23.3558 10.4737 23.092 10.4479 22.8844 10.4308H22.7546H22.5989C22.5297 10.4394 22.4345 10.4587 22.3134 10.4888C22.1923 10.5189 22.069 10.5619 21.9457 10.6177C21.8203 10.6736 21.71 10.7446 21.6148 10.8305C21.5197 10.9165 21.4721 11.0197 21.4721 11.14C21.4721 11.1658 21.4764 11.1873 21.4851 11.2045C21.4851 11.2217 21.4894 11.2389 21.4981 11.2561C21.524 11.2733 21.5759 11.2969 21.6538 11.327C21.7316 11.3571 21.8138 11.3872 21.9003 11.4173C21.9868 11.4474 22.069 11.4732 22.1512 11.4947C22.2334 11.5162 22.2961 11.5269 22.3394 11.5269ZM32.2815 11.5269C32.2901 11.6731 32.3009 11.9331 32.3139 12.3071C32.3269 12.6811 32.3507 13.1217 32.3853 13.629C32.4199 14.1362 32.4653 14.6864 32.5215 15.284C32.5778 15.8815 32.6513 16.4811 32.7421 17.083C32.833 17.6848 32.9389 18.2694 33.0601 18.8368C33.1812 19.4021 33.3326 19.9029 33.5142 20.3371C33.6959 20.7712 33.9014 21.1194 34.1285 21.3816C34.3577 21.6439 34.6194 21.775 34.9135 21.775C35.1212 21.775 35.3785 21.7105 35.6856 21.5815C35.9927 21.4526 36.315 21.2914 36.6524 21.0979C36.9898 20.9045 37.3272 20.6917 37.6645 20.4596C38.0019 20.2274 38.3069 20.0082 38.5794 19.8019C38.8519 19.5955 39.0725 19.415 39.239 19.2602C39.4077 19.1076 39.4921 19.0131 39.4921 18.9787V18.3468C39.1222 18.3468 38.7632 18.4177 38.4172 18.5596C38.0711 18.7014 37.7381 18.8734 37.418 19.0754C37.0979 19.2753 36.7886 19.4924 36.4902 19.7245C36.1917 19.9566 35.8954 20.1716 35.6013 20.3693C35.584 20.3693 35.5407 20.3736 35.4715 20.3822C35.4023 20.3908 35.3591 20.3951 35.3418 20.3951C35.186 20.3951 35.0541 20.3285 34.946 20.1952C34.8378 20.0619 34.7405 19.8943 34.654 19.6923C34.5675 19.4902 34.4983 19.2688 34.4464 19.0303C34.3945 18.7895 34.3534 18.5553 34.3231 18.3274C34.2928 18.0996 34.269 17.8911 34.2517 17.702C34.2344 17.5128 34.2258 17.3796 34.2258 17.3022C34.2258 17.0701 34.2669 16.8809 34.3491 16.7348C34.4312 16.5886 34.5415 16.4768 34.68 16.3995C34.8184 16.3221 34.9806 16.2705 35.1666 16.2447C35.3526 16.2189 35.5451 16.206 35.744 16.206C35.7873 16.206 35.8457 16.2082 35.9192 16.2125C35.9927 16.2168 36.0684 16.2189 36.1463 16.2189C36.2242 16.2189 36.2912 16.2211 36.3474 16.2254C36.4037 16.2297 36.4361 16.2318 36.4448 16.2318C36.4707 16.2318 36.5226 16.2447 36.6005 16.2705C36.6783 16.2963 36.7627 16.3264 36.8535 16.3608C36.9443 16.3952 37.0309 16.4253 37.113 16.4511C37.1952 16.4768 37.2493 16.4897 37.2752 16.4897C37.5261 16.4897 37.6862 16.4468 37.7554 16.3608C37.8246 16.2748 37.8592 16.1458 37.8592 15.9739C37.8592 15.7332 37.7857 15.5526 37.6386 15.4323C37.4915 15.3119 37.312 15.2259 37.1001 15.1743C36.8881 15.1228 36.6697 15.097 36.4448 15.097H35.8868C35.5494 15.097 35.2163 15.1013 34.8876 15.1099C34.5588 15.1185 34.2431 15.213 33.9425 15.3936C33.7867 15.1615 33.6894 14.8756 33.6505 14.536C33.6116 14.1985 33.6029 13.8568 33.6245 13.5129C33.6462 13.169 33.6764 12.8423 33.7154 12.5328C33.7543 12.2233 33.7738 11.9912 33.7738 11.8364C34.1436 11.8364 34.5134 11.8493 34.8811 11.8751C35.2488 11.9009 35.6143 11.9267 35.9776 11.9525C36.3409 11.9783 36.7064 12.0041 37.0741 12.0299C37.4418 12.0557 37.8073 12.0686 38.1706 12.0686H38.4107C38.4756 12.0686 38.5383 12.0492 38.5988 12.0105C38.6594 11.9718 38.7156 11.9159 38.7675 11.8429C38.8194 11.7698 38.88 11.6645 38.9492 11.5269C38.906 11.4323 38.8367 11.3528 38.7416 11.2883C38.6464 11.2239 38.5426 11.168 38.4301 11.1207C38.3177 11.0734 38.2074 11.039 38.0993 11.0175C37.9911 10.996 37.9024 10.981 37.8332 10.9724C37.7986 10.9724 37.6797 10.9616 37.4764 10.9401C37.2731 10.9187 37.0222 10.8886 36.7237 10.8499C36.4253 10.8112 36.0922 10.7725 35.7246 10.7338C35.3569 10.6951 34.9936 10.6564 34.6345 10.6177C34.2755 10.5791 33.9381 10.5425 33.618 10.5081C33.298 10.4737 33.0341 10.4479 32.8265 10.4308H32.6967H32.541C32.4718 10.4394 32.3766 10.4587 32.2555 10.4888C32.1344 10.5189 32.0111 10.5619 31.8857 10.6177C31.7603 10.6736 31.65 10.7446 31.5548 10.8305C31.4596 10.9165 31.4121 11.0197 31.4121 11.14C31.4121 11.1658 31.4164 11.1873 31.425 11.2045C31.425 11.2217 31.4294 11.2389 31.438 11.2561C31.464 11.2733 31.5159 11.2969 31.5937 11.327C31.6716 11.3571 31.7538 11.3872 31.8403 11.4173C31.9268 11.4474 32.0111 11.4732 32.0933 11.4947C32.1755 11.5162 32.2382 11.5269 32.2815 11.5269ZM42.2214 21.1946C42.2733 21.3494 42.349 21.4375 42.4485 21.459C42.548 21.4805 42.654 21.4913 42.7664 21.4913C42.9049 21.4913 43.0325 21.4612 43.1493 21.401C43.266 21.3408 43.3244 21.229 43.3244 21.0657C43.3244 20.6186 43.2898 20.178 43.2206 19.7438C43.1514 19.3097 43.0757 18.8755 42.9935 18.437C42.9114 17.9986 42.8357 17.558 42.7664 17.1152C42.6972 16.6724 42.6626 16.2103 42.6626 15.7289C43.1038 15.7289 43.5169 15.832 43.9019 16.0384C44.2869 16.2447 44.6588 16.4983 45.0179 16.7992C45.3769 17.1002 45.7272 17.4312 46.069 17.7922C46.4085 18.1533 46.7589 18.4843 47.1179 18.7852C47.4769 19.0861 47.8467 19.3355 48.2274 19.5375C48.608 19.7395 49.0233 19.8406 49.4731 19.8406C49.6115 19.8406 49.7153 19.8019 49.7845 19.7245C49.8537 19.6471 49.9035 19.5504 49.9338 19.4343C49.964 19.3183 49.9813 19.1979 49.9857 19.069C49.99 18.94 49.9922 18.8196 49.9922 18.7079C49.9922 18.0975 49.9424 17.4806 49.8429 16.8573C49.7434 16.234 49.6288 15.6107 49.4991 14.9874C49.3693 14.364 49.2439 13.7429 49.1227 13.1196C49.0016 12.4963 48.9238 11.8751 48.8892 11.2561C48.8632 11.1615 48.8113 11.0906 48.7334 11.0433C48.6556 10.996 48.5691 10.9616 48.4739 10.9401C48.3788 10.9187 48.2858 10.9058 48.1949 10.9015C48.1041 10.8972 48.0284 10.895 47.9678 10.895C47.9678 11.4452 48.0024 11.9804 48.0716 12.5006C48.1409 13.0207 48.2187 13.5387 48.3052 14.0545C48.3917 14.5682 48.4696 15.0841 48.5388 15.5999C48.608 16.1158 48.6426 16.6445 48.6426 17.1861C48.6426 17.2291 48.6404 17.2957 48.6361 17.386C48.6318 17.4763 48.6296 17.573 48.6296 17.6762C48.6296 17.7793 48.6275 17.8761 48.6231 17.9663C48.6188 18.0566 48.6167 18.1232 48.6167 18.1662C48.236 18.0459 47.877 17.8675 47.5396 17.631C47.2022 17.3946 46.8713 17.1302 46.5469 16.8379C46.2225 16.5456 45.9024 16.2447 45.5823 15.9352C45.2622 15.6257 44.9335 15.3463 44.5961 15.097C44.2587 14.8476 43.904 14.6413 43.5321 14.478C43.1601 14.3146 42.7664 14.2351 42.3512 14.2351C42.3252 14.2351 42.2798 14.2372 42.2149 14.2415C42.1501 14.2458 42.0809 14.2523 42.0073 14.2609C41.9338 14.2695 41.8646 14.2738 41.7997 14.2738C41.7348 14.2738 41.6894 14.2781 41.6634 14.2845C41.6375 14.3533 41.6094 14.478 41.5791 14.6585L41.4818 15.2388C41.4472 15.4452 41.4212 15.6429 41.4039 15.832C41.3866 16.0212 41.378 16.1544 41.378 16.2318C41.378 16.4038 41.3931 16.6252 41.4234 16.896C41.4537 17.1668 41.4948 17.4634 41.5467 17.7858C41.5986 18.1082 41.6548 18.4392 41.7154 18.7788C41.7759 19.1184 41.8386 19.4408 41.9035 19.7503C41.9684 20.0598 42.029 20.3435 42.0852 20.6014C42.1414 20.8594 42.1868 21.0571 42.2214 21.1946ZM51.891 13.01C51.891 13.1561 51.917 13.3882 51.9689 13.7063C52.0208 14.0245 52.0965 14.392 52.196 14.8133C52.2955 15.2345 52.4058 15.6945 52.5269 16.1931C52.648 16.6918 52.7778 17.1883 52.9162 17.6826C53.0546 18.177 53.193 18.6541 53.3358 19.1141C53.4785 19.5719 53.6169 19.9781 53.751 20.3306C53.8851 20.6831 54.0062 20.9647 54.1143 21.1753C54.2225 21.3859 54.3155 21.4913 54.3933 21.4913C54.7913 21.4913 55.1568 21.3795 55.4898 21.156C55.8229 20.9324 56.1235 20.638 56.3917 20.2726C56.6599 19.9072 56.8956 19.4945 57.0989 19.0367C57.3022 18.5768 57.4731 18.1125 57.6115 17.6439C57.7499 17.1754 57.8537 16.7197 57.9229 16.277C57.9921 15.8342 58.0267 15.4495 58.0267 15.1228C58.0267 14.6327 57.9748 14.1534 57.871 13.6806C57.7672 13.2077 57.5964 12.7907 57.3585 12.4296C57.1206 12.0686 56.8091 11.7784 56.4242 11.5592C56.0392 11.3399 55.5655 11.2303 55.0032 11.2303C54.7091 11.2303 54.3804 11.254 54.017 11.3012C53.6537 11.3485 53.3141 11.4388 53.0005 11.5721C52.6848 11.7053 52.4209 11.888 52.209 12.1201C51.997 12.3523 51.891 12.6489 51.891 13.01ZM52.9681 13.745C52.9681 13.7106 52.9703 13.6526 52.9746 13.5709C52.9789 13.4893 52.9811 13.4033 52.9811 13.313C52.9811 13.2227 52.9832 13.1389 52.9876 13.0615C52.9919 12.9842 52.994 12.9326 52.994 12.9068C53.2947 12.7348 53.6083 12.5951 53.9327 12.4877C54.2571 12.3802 54.5923 12.3265 54.9384 12.3265C55.3622 12.3265 55.704 12.406 55.9635 12.565C56.223 12.7241 56.4242 12.9347 56.5669 13.197C56.7096 13.4592 56.8026 13.7579 56.8459 14.0932C56.8891 14.4264 56.9108 14.7703 56.9108 15.1228C56.9108 15.6128 56.8783 16.0427 56.8134 16.4124C56.7486 16.7821 56.6469 17.1302 56.5085 17.4569C56.3701 17.7836 56.1927 18.1103 55.9765 18.437C55.7602 18.7637 55.505 19.1334 55.2109 19.544C54.9513 19.3892 54.7178 19.1786 54.5101 18.9078C54.3025 18.6369 54.1165 18.3339 53.9521 17.9986C53.7878 17.6633 53.6429 17.3043 53.5174 16.9218C53.392 16.5392 53.2882 16.1587 53.206 15.7805C53.1238 15.4022 53.0654 15.0368 53.0265 14.6843C52.9876 14.334 52.9681 14.0202 52.9681 13.745ZM62.6615 10.4308C62.3414 10.8176 62.0451 11.3098 61.7726 11.9074C61.5001 12.5049 61.2536 13.1518 61.033 13.8482C60.8124 14.5424 60.6242 15.2646 60.4685 16.0126C60.3128 16.7606 60.1808 17.4763 60.0749 18.1598C59.9667 18.8433 59.8932 19.4666 59.8543 20.034C59.8153 20.6014 59.811 21.0549 59.8413 21.3945C59.8716 21.7341 59.9321 21.9319 60.023 21.9878C60.1138 22.0436 60.2371 21.9082 60.3971 21.5815C60.5572 21.2548 60.7561 20.7046 60.994 19.9308C61.2319 19.1592 61.5066 18.106 61.818 16.7735H61.9608C62.6355 16.8594 63.2779 16.9476 63.8878 17.0378C64.4977 17.1281 65.1054 17.2248 65.7088 17.328C65.7521 17.4398 65.8256 17.6246 65.9294 17.8825C66.0332 18.1404 66.1435 18.4156 66.2603 18.7079C66.3771 19.0002 66.4896 19.2774 66.5977 19.544C66.7058 19.8105 66.7772 19.991 66.8118 20.0856C66.8464 20.1544 66.8853 20.236 66.9286 20.3306C66.9718 20.4252 67.0194 20.5198 67.0713 20.6143C67.1232 20.7089 67.186 20.7884 67.2595 20.8529C67.333 20.9174 67.4217 20.9496 67.5255 20.9496C67.6899 20.9496 67.8045 20.8873 67.8694 20.7626C67.9343 20.638 67.9667 20.5069 67.9667 20.3693C67.9667 20.2317 67.9235 19.9781 67.8369 19.6084C67.7504 19.2409 67.6272 18.8046 67.4671 18.3016C67.3071 17.7987 67.1189 17.2463 66.9026 16.6445C66.6864 16.0427 66.4549 15.4387 66.2084 14.8326C65.9618 14.2286 65.7066 13.6419 65.4428 13.0744C65.1789 12.507 64.9194 12.0041 64.6599 11.5656C64.4003 11.1271 64.1473 10.7768 63.9007 10.5146C63.6542 10.2524 63.4314 10.1212 63.2325 10.1212C63.1027 10.1212 62.9881 10.1341 62.8886 10.1599C62.7891 10.1857 62.7134 10.276 62.6615 10.4308ZM62.3501 14.968C62.3501 14.9336 62.3544 14.8627 62.363 14.7552C62.3717 14.6478 62.376 14.5811 62.376 14.5553C62.4193 14.3662 62.4842 14.1233 62.5707 13.8224C62.6572 13.5215 62.7545 13.2141 62.8626 12.9003C62.9708 12.5865 63.0789 12.3028 63.187 12.0492C63.2952 11.7956 63.3968 11.6215 63.492 11.5269C63.6564 11.8278 63.8359 12.1653 64.0305 12.5393C64.2252 12.9132 64.409 13.298 64.582 13.6935C64.755 14.0889 64.8978 14.4844 65.0102 14.8842C65.1227 15.284 65.1768 15.6558 65.1768 15.9997C64.9454 15.9997 64.6664 16.004 64.342 16.0126C64.0175 16.0212 63.7083 16.004 63.4141 15.961C63.12 15.918 62.8691 15.8213 62.6615 15.6708C62.4539 15.5204 62.3501 15.2861 62.3501 14.968ZM74.2754 14.5553C74.2581 15.14 74.2906 15.7568 74.3727 16.4059C74.4549 17.055 74.5825 17.6977 74.7555 18.3339C74.9286 18.9701 75.1362 19.5805 75.3784 20.1694C75.6206 20.7583 75.9018 21.2849 76.2219 21.7492C76.3776 21.7922 76.4966 21.7879 76.5787 21.7363C76.6609 21.6847 76.7172 21.6116 76.7474 21.5171C76.7777 21.4225 76.7929 21.3215 76.7929 21.214V20.9496C76.7929 20.451 76.7193 19.9631 76.5723 19.4859C76.4252 19.0109 76.2651 18.5338 76.0921 18.0566C75.9191 17.5795 75.7569 17.1002 75.6055 16.6187C75.4541 16.1373 75.3784 15.6386 75.3784 15.1228C75.3784 14.9594 75.426 14.7359 75.5212 14.4522C75.6163 14.1706 75.7396 13.8482 75.891 13.4871C76.0424 13.126 76.2132 12.7413 76.4036 12.3329C76.5939 11.9245 76.7842 11.514 76.9745 11.1013C77.1627 10.6887 77.3443 10.291 77.5174 9.90846C77.6904 9.52588 77.8353 9.17984 77.9521 8.86603C78.0689 8.55223 78.1511 8.29001 78.1986 8.07937C78.2462 7.86874 78.2354 7.72903 78.1662 7.66025L77.6082 7.09283C77.366 7.20459 77.154 7.40233 76.968 7.68605C76.782 7.96976 76.6047 8.30076 76.436 8.67904C76.2673 9.05732 76.1051 9.46355 75.9494 9.90202C75.7937 10.3405 75.6336 10.7661 75.4693 11.1787C75.3049 11.5914 75.1254 11.9761 74.9307 12.3329C74.7361 12.6897 74.5176 12.9756 74.2754 13.1905C74.2581 13.1905 74.2343 13.1948 74.204 13.2034C74.1738 13.212 74.15 13.2163 74.1327 13.2163C73.8645 13.2163 73.6266 13.1411 73.419 12.9906C73.2113 12.8402 73.0275 12.6403 72.8675 12.391C72.7074 12.1416 72.5625 11.8579 72.4328 11.5398C72.303 11.2217 72.1797 10.8993 72.0651 10.5726C71.9483 10.2459 71.8337 9.92351 71.7212 9.60541C71.6088 9.28945 71.4876 9.00574 71.3579 8.75642C71.2281 8.50709 71.0854 8.3072 70.9297 8.15675C70.7739 8.0063 70.588 7.93107 70.3717 7.93107C70.3025 7.93107 70.2462 7.95041 70.203 7.9891C70.1597 8.02779 70.1316 8.07508 70.1186 8.13096C70.1057 8.18684 70.097 8.24487 70.0927 8.30506C70.0884 8.36524 70.0862 8.41682 70.0862 8.45981C70.0862 8.77791 70.1424 9.139 70.2549 9.54093C70.3673 9.945 70.5231 10.362 70.722 10.7918C70.921 11.2217 71.1567 11.6473 71.4293 12.0686C71.7018 12.4898 71.9916 12.8724 72.2965 13.2163C72.6036 13.5602 72.9259 13.8525 73.2633 14.0932C73.6006 14.3318 73.938 14.4866 74.2754 14.5553Z" fill="black" fill-opacity="0.85"/>
<path d="M101.498 0.34258V0H100.465C98.9508 0 96.0262 0.308631 93.5482 2.36689C91.7926 3.80757 90.8983 5.62448 90.4848 6.96239C90.4848 6.96239 90.4848 6.92875 90.4508 6.92875C89.9691 6.38032 89.1427 5.86552 88.1797 5.55689C87.1814 5.21431 86.3903 5.17944 85.8396 5.14579C85.1513 5.11185 84.188 5.14579 82.3986 5.28314C82.1579 5.28314 81.9173 5.31708 81.7451 5.31708L80.954 5.35073L81.3665 6.27662C81.6003 7.13603 81.9354 7.96482 82.3649 8.74566C82.5718 9.12312 82.9153 9.74038 83.5698 10.4601C84.0867 11.0085 84.4652 11.4545 85.1526 11.7971C85.738 12.0718 86.3575 12.2082 86.977 12.2082C87.2529 12.2082 87.4939 12.1742 87.7684 12.1394C88.6288 11.9681 89.3862 11.5221 90.0057 10.836C90.0747 10.7675 90.1776 10.665 90.2813 10.5274V10.6987C90.3504 11.3499 90.4195 11.8644 90.763 14.06L90.7971 14.3686C90.9349 15.3633 91.0377 15.9457 91.1068 16.3228C91.1756 16.7339 91.0727 17.7287 91.0377 17.9348C90.8999 18.586 90.6251 19.2033 90.2804 19.8206C90.0735 20.1292 90.1776 20.5748 90.5211 20.7464C90.6239 20.815 90.7617 20.8486 90.8649 20.8486C91.1056 20.8486 91.3125 20.7461 91.4503 20.506C91.8979 19.7514 92.2076 18.9629 92.3795 18.2083C92.4486 17.866 92.5515 16.7339 92.4486 16.1503C92.3795 15.7392 92.3105 15.1559 92.1389 14.1612L92.1048 13.8526C91.761 11.6233 91.6922 11.1774 91.6572 10.6289C92.5174 11.315 93.5157 11.3835 94.3071 11.4524C94.4787 11.4524 94.6509 11.4863 94.7884 11.4863C97.2326 11.4863 98.953 10.0805 99.1249 9.9092C99.8134 9.32589 100.708 8.3321 101.19 6.72043C101.466 5.82849 101.466 4.45755 101.5 1.47371C101.498 0.960149 101.498 0.582694 101.498 0.342888L101.498 0.34258ZM88.3841 8.5719C87.5574 8.33282 86.6973 8.2286 85.8371 8.26327C85.7343 8.26327 85.6655 8.19445 85.6655 8.09198C85.6655 7.98952 85.7343 7.921 85.8371 7.921C86.4566 7.88705 87.4549 7.921 88.522 8.22963C89.1415 8.4358 89.761 8.70924 90.3117 9.05306V9.46415C89.6581 9.0867 89.0386 8.77776 88.3841 8.5719ZM95.4392 6.68617C96.3344 5.93157 97.1258 5.07481 97.7793 4.07979C97.8134 4.04584 97.8481 4.01127 97.8822 4.01127C97.9162 4.01127 97.9509 4.01127 98.02 4.04491C98.0891 4.11373 98.1228 4.2162 98.0541 4.28472C97.4005 5.27943 96.5741 6.20532 95.6449 6.95993C94.475 7.91977 93.0978 8.67437 91.5844 9.18916C91.5844 9.05182 91.5504 8.94936 91.4816 8.84658C92.9612 8.3321 94.3043 7.61206 95.4392 6.68617Z" fill="#417505"/>
</svg>
